<?xml version="1.0" encoding="utf-8"?>
<!-- Generator: Adobe Illustrator 16.0.0, SVG Export Plug-In . SVG Version: 6.00 Build 0)  -->
<!DOCTYPE svg PUBLIC "-//W3C//DTD SVG 1.1//EN" "http://www.w3.org/Graphics/SVG/1.1/DTD/svg11.dtd">
<svg version="1.1" id="Layer_1" xmlns="http://www.w3.org/2000/svg" xmlns:xlink="http://www.w3.org/1999/xlink" x="0px" y="0px"
	 width="1200px" height="1200px" viewBox="0 0 1200 1200" enable-background="new 0 0 1200 1200" xml:space="preserve">
<g>
	<g id="Big_Boomi_Logo_RGB">
		<g>
			<g id="White_Logo_RGB_8_">
				<path fill="#1187C9" d="M141.945,473.768c-69.698,0-126.199,56.501-126.199,126.2s56.501,126.199,126.199,126.199
					c69.698,0,126.2-56.501,126.2-126.199S211.643,473.768,141.945,473.768 M141.945,713.548
					c-62.728,0-113.581-50.851-113.581-113.58c0-62.728,50.853-113.581,113.581-113.581s113.581,50.854,113.581,113.581
					C255.525,662.697,204.672,713.548,141.945,713.548 M241.264,616.06v10.788h-34.894v-53.76h10.726v42.972H241.264z
					 M73.796,626.848c12.691,0.219,23.99-7.994,27.701-20.129l32.307,23.728l32.307-23.728v20.129h34.896V616.06h-24.168v-42.972
					h-10.728v20.129l-30.98,22.715l-6.941-5.049l14.827-10.915l16.155-11.863l-9.213-6.751l-30.982,22.715l-6.942-5.048
					l30.982-22.778l-9.213-6.754l-32.307,23.728c-3.711-12.137-15.01-20.348-27.701-20.129H50.639v53.76H73.796z M64.079,616.06
					v-32.182h9.529c8.457,0.441,14.969,7.63,14.574,16.09c0.395,8.459-6.118,15.648-14.574,16.092H64.079z"/>
			</g>
		</g>
	</g>
	<path fill="#808081" d="M413.275,489.858h15.902c5.679,0,11.294,0.443,16.911,0.946c5.236,0.499,10.441,1.301,15.586,2.399
		c4.451,0.857,8.722,2.479,12.619,4.796c7.625,4.68,14.098,11.021,18.929,18.551c5.479,8.688,8.228,18.824,7.888,29.089
		c0.284,11.164-2.794,22.157-8.833,31.551c-6.151,9.022-14.979,15.887-25.242,19.623v0.693c12.771,2.107,24.32,8.848,32.435,18.932
		c7.684,10.338,11.66,22.964,11.294,35.84c0.002,8.311-1.537,16.548-4.542,24.294c-2.958,7.82-7.488,14.95-13.315,20.95
		c-6.229,6.299-13.652,11.296-21.832,14.702c-9.55,3.88-19.792,5.769-30.098,5.552H329.92V489.858H413.275z M420.217,586.527
		c17.289,0,29.657-3.03,37.228-9.087c7.902-6.792,12.118-16.928,11.359-27.321c0.294-6.529-1.026-13.033-3.849-18.932
		c-2.401-4.658-6.108-8.514-10.665-11.104c-4.789-2.621-10.037-4.292-15.458-4.921c-6.279-0.788-12.602-1.168-18.93-1.137H359.45
		v72.501H420.217z M434.604,691.273c11.359,0.67,22.521-3.187,31.045-10.729c7.739-7.866,11.795-18.637,11.169-29.654
		c0.257-6.335-1.156-12.623-4.102-18.236c-2.577-4.711-6.311-8.686-10.853-11.549c-4.77-3.029-10.051-5.166-15.586-6.309
		c-6.031-1.148-12.159-1.719-18.298-1.705H359.45v78.182H434.604z"/>
	<path fill="#808081" d="M533.167,600.789c3.201-10.145,8.44-19.529,15.396-27.576c6.982-7.896,15.593-14.18,25.24-18.424
		c22.277-8.919,47.131-8.919,69.409,0c9.631,4.273,18.236,10.555,25.24,18.424c6.932,8.064,12.168,17.443,15.396,27.576
		c3.478,11.063,5.202,22.603,5.111,34.199c0.101,11.514-1.624,22.975-5.111,33.947c-3.242,10.09-8.479,19.424-15.396,27.449
		c-6.961,7.871-15.584,14.1-25.24,18.235c-22.291,8.835-47.117,8.835-69.409,0c-9.673-4.111-18.3-10.343-25.24-18.235
		c-6.941-8.009-12.18-17.35-15.396-27.449c-3.487-10.973-5.212-22.434-5.111-33.947
		C527.964,623.392,529.691,611.852,533.167,600.789z M560.931,661.744c2.32,7.197,6.077,13.854,11.041,19.56
		c4.589,5.152,10.225,9.262,16.533,12.051c12.782,5.53,27.284,5.53,40.069,0c6.306-2.789,11.941-6.898,16.53-12.051
		c4.964-5.706,8.722-12.362,11.044-19.56c2.799-8.641,4.162-17.678,4.037-26.756c0.129-9.1-1.234-18.16-4.037-26.816
		c-2.365-7.219-6.118-13.908-11.044-19.688c-4.55-5.225-10.192-9.382-16.53-12.178c-12.785-5.528-27.287-5.528-40.069,0
		c-6.34,2.796-11.985,6.954-16.533,12.178c-4.925,5.781-8.678,12.469-11.041,19.688c-2.835,8.648-4.201,17.715-4.039,26.816
		C556.735,644.069,558.101,653.113,560.931,661.744z"/>
	<path fill="#808081" d="M709.215,600.789c3.174-10.155,8.418-19.543,15.396-27.576c6.979-7.898,15.588-14.185,25.242-18.424
		c22.277-8.907,47.127-8.907,69.406,0c9.629,4.273,18.238,10.555,25.242,18.424c6.937,8.052,12.154,17.436,15.333,27.576
		c3.526,11.053,5.274,22.598,5.174,34.199c0.108,11.521-1.638,22.983-5.174,33.947c-3.196,10.095-8.411,19.436-15.333,27.449
		c-6.963,7.871-15.584,14.1-25.242,18.235c-22.299,8.791-47.107,8.791-69.406,0c-9.678-4.104-18.307-10.335-25.242-18.235
		c-6.964-7.994-12.203-17.338-15.396-27.449c-3.485-10.973-5.213-22.434-5.111-33.947
		C704.015,623.392,705.736,611.852,709.215,600.789z M736.977,661.744c2.298,7.209,6.058,13.868,11.043,19.56
		c4.576,5.164,10.218,9.276,16.533,12.051c12.785,5.53,27.285,5.53,40.067,0c6.311-2.789,11.946-6.898,16.532-12.051
		c4.947-5.72,8.7-12.37,11.044-19.56c2.777-8.643,4.121-17.68,3.977-26.756c0.149-9.097-1.194-18.156-3.977-26.816
		c-2.39-7.209-6.14-13.891-11.044-19.688c-4.586-5.241-10.272-9.398-16.658-12.178c-12.784-5.528-27.284-5.528-40.066,0
		c-6.35,2.78-11.998,6.939-16.533,12.178c-4.949,5.766-8.702,12.457-11.043,19.688c-2.833,8.648-4.199,17.715-4.037,26.816
		C732.699,644.076,734.105,653.121,736.977,661.744z"/>
	<path fill="#808081" d="M915.236,551.631v24.168h0.633c17.915-26.555,52.623-35.91,81.459-21.957
		c8.595,4.641,14.943,12.561,17.607,21.957c5.323-8.813,12.903-16.046,21.957-20.948c9.191-5.002,19.51-7.567,29.973-7.445
		c7.616-0.07,15.208,0.841,22.588,2.712c6.315,1.641,12.222,4.562,17.356,8.582c4.899,4.01,8.738,9.17,11.166,15.018
		c2.871,7,4.244,14.522,4.042,22.085v122.288h-26.885V609.434c0.053-4.846-0.371-9.685-1.262-14.452
		c-0.728-4.21-2.365-8.216-4.794-11.735c-2.505-3.435-5.882-6.135-9.778-7.826c-5.111-2.136-10.622-3.126-16.157-2.902
		c-11.65-0.614-23.046,3.558-31.548,11.547c-7.869,8.269-12.017,19.391-11.484,30.793v103.231h-29.532V609.434
		c0.031-4.959-0.455-9.909-1.45-14.765c-0.826-4.217-2.521-8.216-4.985-11.737c-2.373-3.327-5.571-5.979-9.275-7.698
		c-4.827-1.951-10.006-2.876-15.208-2.714c-7.072-0.173-14.072,1.477-20.316,4.795c-5.297,2.912-9.97,6.836-13.756,11.547
		c-3.329,4.187-5.931,8.9-7.698,13.945c-1.407,3.873-2.216,7.938-2.399,12.053v103.231h-27.07V551.631H915.236z"/>
	<path fill="#808081" d="M1156.909,522.102v-32.244h26.88v32.244H1156.909z M1183.789,551.631v166.459h-26.88V551.631H1183.789z"/>
</g>
</svg>
