<?xml version="1.0" encoding="utf-8"?>
<!-- Generator: Adobe Illustrator 26.0.3, SVG Export Plug-In . SVG Version: 6.00 Build 0)  -->
<svg version="1.0" id="Layer_1" xmlns="http://www.w3.org/2000/svg" xmlns:xlink="http://www.w3.org/1999/xlink" x="0px" y="0px"
	 viewBox="0 0 901.2 641.9" style="enable-background:new 0 0 901.2 641.9;" xml:space="preserve">
<style type="text/css">
	.st0{fill:#7BCD54;}
	.st1{fill:#63C43F;}
</style>
<g id="g37">
	<g id="g39">
		<path id="path41" class="st0" d="M203,439H85V326.9h235.8C317.6,389.7,265.8,439,203,439"/>
		<path id="path43" class="st1" d="M203,203H85v112.1h235.8C317.6,252.3,265.8,203,203,203"/>
		<path id="path45" class="st1" d="M698.4,203c-62.9,0-114.7,49.3-117.8,112.1h235.6C813.1,252.3,761.3,203,698.4,203"/>
		<path id="path47" class="st0" d="M698.4,439c-62.9,0-114.7-49.3-117.8-112.1h235.6C813.1,389.7,761.3,439,698.4,439"/>
		<path id="path49" class="st1" d="M332.7,203v118c0,62.9,49.3,114.7,112.1,117.8V203H332.7"/>
		<path id="path51" class="st0" d="M568.6,439h-112V203h112V439"/>
	</g>
</g>
</svg>
