<svg width="1123" height="1122" viewBox="0 0 1123 1122" fill="none" xmlns="http://www.w3.org/2000/svg">
<path d="M714.71 204C771.025 204 816.678 158.333 816.678 102C816.678 45.667 771.025 0 714.71 0C658.395 0 612.742 45.667 612.742 102C612.742 158.333 658.395 204 714.71 204Z" fill="#0097A7"/>
<path fill-rule="evenodd" clip-rule="evenodd" d="M0.935547 714L0.984072 710.823C2.66208 655.96 47.6506 612 102.903 612C159.219 612 204.871 657.667 204.871 714V1020C204.871 1076.33 159.219 1122 102.903 1122C46.5881 1122 0.935547 1076.33 0.935547 1020V714Z" fill="#0097A7"/>
<path fill-rule="evenodd" clip-rule="evenodd" d="M0.935547 102L0.984072 98.823C2.66208 43.9599 47.6506 0 102.903 0C159.219 0 204.871 45.667 204.871 102V408C204.871 464.333 159.219 510 102.903 510C46.5881 510 0.935547 464.333 0.935547 408V102Z" fill="#0097A7"/>
<path fill-rule="evenodd" clip-rule="evenodd" d="M306.839 102L306.887 98.823C308.565 43.9599 353.554 0 408.807 0C465.122 0 510.774 45.667 510.774 102V714C510.774 770.333 465.122 816 408.807 816C352.491 816 306.839 770.333 306.839 714V102Z" fill="#0097A7"/>
<path fill-rule="evenodd" clip-rule="evenodd" d="M918.646 102L918.694 98.823C920.372 43.9599 965.361 0 1020.61 0C1076.93 0 1122.58 45.667 1122.58 102V1020C1122.58 1076.33 1076.93 1122 1020.61 1122C964.298 1122 918.646 1076.33 918.646 1020V102Z" fill="#0097A7"/>
<path fill-rule="evenodd" clip-rule="evenodd" d="M612.742 408L612.791 404.823C614.469 349.96 659.457 306 714.71 306C771.025 306 816.678 351.667 816.678 408V1020C816.678 1076.33 771.025 1122 714.71 1122C658.395 1122 612.742 1076.33 612.742 1020V408Z" fill="#0097A7"/>
<path d="M408.807 1122C465.122 1122 510.774 1076.33 510.774 1020C510.774 963.667 465.122 918 408.807 918C352.491 918 306.839 963.667 306.839 1020C306.839 1076.33 352.491 1122 408.807 1122Z" fill="#0097A7"/>
</svg>
