<svg width="1897" height="1260" viewBox="0 0 1897 1260" fill="none" xmlns="http://www.w3.org/2000/svg">
<path d="M204.839 830.739C204.839 903.155 220.733 958.753 241.507 992.389C268.744 1036.45 309.368 1055.11 350.785 1055.11C404.204 1055.11 453.072 1041.85 547.248 911.597C622.694 807.194 711.594 660.647 771.41 568.775L872.708 413.127C943.076 305.031 1024.52 184.865 1117.91 103.414C1194.15 36.9335 1276.38 0 1359.15 0C1498.11 0 1630.47 80.5281 1731.76 231.56C1842.63 396.969 1896.44 605.313 1896.44 820.319C1896.44 948.135 1871.25 1042.05 1828.38 1116.25C1786.96 1188 1706.24 1259.69 1570.45 1259.69V1055.11C1686.72 1055.11 1715.74 948.267 1715.74 825.99C1715.74 651.744 1675.11 458.371 1585.62 320.2C1522.11 222.194 1439.81 162.309 1349.26 162.309C1251.32 162.309 1172.51 236.176 1083.94 367.884C1036.86 437.859 988.515 523.136 934.239 619.361L874.489 725.215C754.461 938.044 724.058 986.519 664.044 1066.52C558.855 1206.6 469.032 1259.69 350.785 1259.69C210.51 1259.69 121.808 1198.95 66.8727 1107.41C22.0271 1032.82 0 934.944 0 823.418L204.839 830.739Z" fill="#0081FB"/>
<path d="M161.51 246.003C255.422 101.237 390.948 0 546.391 0C636.411 0 725.905 26.6449 819.355 102.952C921.576 186.382 1030.52 323.761 1166.45 550.177L1215.18 631.43C1332.84 827.441 1399.78 928.283 1438.95 975.835C1489.33 1036.91 1524.62 1055.11 1570.45 1055.11C1686.72 1055.11 1715.74 948.267 1715.74 825.99L1896.44 820.319C1896.44 948.135 1871.25 1042.05 1828.38 1116.25C1786.96 1188 1706.24 1259.69 1570.45 1259.69C1486.04 1259.69 1411.25 1241.36 1328.55 1163.34C1264.97 1103.45 1190.65 997.072 1133.47 901.44L963.388 617.316C878.05 474.727 799.768 368.411 754.461 320.266C705.724 268.493 643.072 205.97 543.093 205.97C462.173 205.97 393.454 262.755 335.946 349.615L161.51 246.003Z" fill="url(#paint0_linear_2189_3)"/>
<path d="M543.093 205.97C462.173 205.97 393.454 262.755 335.946 349.615C254.63 472.353 204.839 655.173 204.839 830.739C204.839 903.155 220.733 958.753 241.507 992.389L66.8727 1107.41C22.0271 1032.82 0 934.944 0 823.418C0 620.614 55.6613 409.236 161.51 246.003C255.422 101.237 390.948 0 546.39 0L543.093 205.97Z" fill="url(#paint1_linear_2189_3)"/>
<defs>
<linearGradient id="paint0_linear_2189_3" x1="24239.6" y1="70459.5" x2="154662" y2="77046.1" gradientUnits="userSpaceOnUse">
<stop stop-color="#0064E1"/>
<stop offset="0.4" stop-color="#0064E1"/>
<stop offset="0.83" stop-color="#0073EE"/>
<stop offset="1" stop-color="#0082FB"/>
</linearGradient>
<linearGradient id="paint1_linear_2189_3" x1="29677.2" y1="91674.1" x2="29677.2" y2="43528.7" gradientUnits="userSpaceOnUse">
<stop stop-color="#0082FB"/>
<stop offset="1" stop-color="#0064E0"/>
</linearGradient>
</defs>
</svg>
