<?xml version="1.0" encoding="utf-8"?>
<!-- Generator: Adobe Illustrator 19.2.1, SVG Export Plug-In . SVG Version: 6.00 Build 0)  -->
<svg version="1.1" id="layer" xmlns="http://www.w3.org/2000/svg" xmlns:xlink="http://www.w3.org/1999/xlink" x="0px" y="0px"
	 viewBox="0 0 652 652" style="enable-background:new 0 0 652 652;" xml:space="preserve">
<style type="text/css">
	.st0{fill:#012168;}
</style>
<path class="st0" d="M619.9,370.8h0.3c0.4,0,1-0.1,1-0.7c0-0.7-0.6-0.7-1-0.7h-0.2V370.8L619.9,370.8z M621.4,373.4l-1.5-1.9v1.9
	h-0.7v-4.6h0.8c0.4,0,1.8,0,1.8,1.3c0,0.7-0.5,1.2-1.2,1.3l1.6,2H621.4L621.4,373.4z M620.5,367.5c-2,0-3.5,1.5-3.5,3.5
	c0,2,1.5,3.5,3.5,3.5c2,0,3.5-1.5,3.5-3.5C624,369,622.5,367.5,620.5,367.5L620.5,367.5z M620.5,366.8c2.4,0,4.2,1.8,4.2,4.2
	c0,2.4-1.8,4.2-4.2,4.2c-2.4,0-4.2-1.8-4.2-4.2C616.3,368.6,618.1,366.8,620.5,366.8L620.5,366.8z M170.2,347.7
	c0.3,6,5,11.3,13.9,11.3c8,0,13.5-3.8,13.6-10c0.1-4.2-1.8-7.9-11.2-10.6l-11.2-3.1c-20.5-6.4-24.1-18.6-24.1-27
	c0-16.8,14.2-28.1,32-28.1c18,0,31.5,10.8,31.5,28.8h-19.7c0-6.3-4.2-10.6-12-10.6c-6.9,0-12,3.8-12,9.4c0,2.5,0.9,7,10,9.5
	l11.1,3.5c22.6,6.5,25.8,19.4,25.5,28.4c-0.3,18.7-17,27.6-33.5,27.6c-20.3,0-33.8-12.1-33.8-29.1H170.2z M255.3,358.5
	c7.7,0,15.3-5.6,15.3-15.1c0-9.5-7.6-15.1-15.3-15.1c-7.8,0-15.8,6-15.8,15.1C239.5,352.5,247.4,358.5,255.3,358.5L255.3,358.5z
	 M271.8,368c-4.1,6.1-13.5,8.5-18.4,8.5c-16.1,0-32.2-12.7-32.2-33.2c0-20.5,16.1-33.2,32.2-33.2c4.1,0,13.5,1.4,18.4,8.5v-7.1h18.6
	v63.7h-18.6V368z M299.6,375.3h18.6v-63.7h-18.6V375.3z M309,279.4c6.4,0,11.5,4.8,11.5,11.1c0,6.3-5.1,11.2-11.5,11.2
	c-6.4,0-11.8-4.9-11.8-11.2C297.2,284.2,302.6,279.4,309,279.4L309,279.4z M327.5,375.3h18.8v-98.4h-18.8V375.3z M374.9,298.8v26.5
	h17.4c7.7,0,11.8-7.1,11.8-13.2c0-5.9-3.8-13.2-11.2-13.2H374.9z M355,281.2h38.2c21.2,0,30.7,15.4,30.7,30.8
	c0,15.6-9.5,30.7-30.7,30.7h-18.4v32.5H355V281.2z M468.6,343.2c0-8.6-6.5-14.5-14.3-14.5c-7.7,0-14.2,5.9-14.2,14.5
	c0,8.9,6.5,14.6,14.2,14.6C462.1,357.8,468.6,352.1,468.6,343.2 M421.5,343.2c0-20.1,14.9-33,32.7-33c17.8,0,32.8,13,32.8,33
	s-15,33.2-32.8,33.2C436.4,376.3,421.5,363.2,421.5,343.2 M492.5,375.3h18.6v-63.7h-18.6V375.3z M501.8,279.4
	c6.4,0,11.5,4.8,11.5,11.1c0,6.3-5.1,11.2-11.5,11.2c-6.4,0-11.8-4.9-11.8-11.2C490,284.2,495.5,279.4,501.8,279.4L501.8,279.4z
	 M538.9,375.3h-18.8v-63.7h18.8v9.3c3.4-6.4,10.8-10.6,18.2-10.6c14.2,0,23.1,8.9,23.1,27v38.1h-18.8v-34c0-8.5-4.6-12.7-10.9-12.7
	c-6.6,0-11.6,3.3-11.6,13V375.3z M625.4,311.5v15h-12v48.7h-18.7v-48.7h-11.5v-15h11.5v-24.4h18.7v24.4H625.4z M93.2,291.9
	c0,0,33.9,34.2,18.3,67.2c0,0-19.1,1.6-40.9,5.6C70.6,364.7,105.6,338.5,93.2,291.9 M87,269.1c1.3,3.2,2.9,7.4,4.3,12.3v0
	c0.2,0.6,0.3,1.2,0.5,1.8c21.1,3.8,37.1,22.4,37.1,44.8c0,25.1-20.2,45.5-45.1,45.5c-11,0-21.1-4-28.9-10.6c7-1.2,13.5-1.3,13.5-1.3
	c28.2-24.5,24.5-58.5,18.6-78.9c-3.1-10.8-6.8-17.8-6.8-17.8c-0.9,6.2-2,12.3-3.3,18.1c-6.2,28.3-16.4,51.8-28.8,68l-1.7,2.7
	c-4.9-7.3-7.8-16.1-7.8-25.6c0-21.1,14.2-38.8,33.5-44c0.1-0.7,0.3-1.3,0.4-2c0.9-4.1,1.7-8.3,2.4-12.4
	c-28.1,4.2-49.7,28.8-49.7,58.3c0,32.6,26.2,59,58.4,59c32.3,0,58.4-26.4,58.4-59C142.2,296.5,117.8,270.8,87,269.1"/>
</svg>
