<?xml version="1.0" encoding="utf-8"?>
<!-- Generator: Adobe Illustrator 28.2.0, SVG Export Plug-In . SVG Version: 6.00 Build 0)  -->
<svg version="1.0" id="katman_1" xmlns="http://www.w3.org/2000/svg" xmlns:xlink="http://www.w3.org/1999/xlink" x="0px" y="0px"
	 viewBox="0 0 841.9 595.3" style="enable-background:new 0 0 841.9 595.3;" xml:space="preserve">
<path d="M248.3,328.2v-44.2h-14.2v-19.5h14.1v-23.3h22.3v23.3h17.2v19.5h-17.1v38.2c0,5.5,2.8,9.5,7.8,9.5c2.8,0.1,5.6-0.8,7.8-2.7
	l4.7,17.1c-3.4,3-9.3,5.5-18.7,5.5C256.6,351.7,248.3,343.5,248.3,328.2z M293,306.9c0-24.6,18.3-44.7,44.1-44.7
	s42.6,19.1,42.6,46.7v5.3h-63.2c1.6,10.4,10.1,19.1,24.6,19.1c7.2,0,17.1-3,22.6-8.3l10.1,14.8c-8.5,7.8-21.8,11.8-35.1,11.8
	C312.7,351.7,293,334.2,293,306.9z M337.1,280.7c-14,0-19.9,9.7-20.8,18.2h41.9C357.6,290.7,351.9,280.7,337.1,280.7z M445.6,349.5
	v-51.3c0-11.8-6.2-15.9-15.7-15.9c-7.6,0.1-14.8,3.8-19.4,9.8v57.4h-22.3v-85.1h22.3v10.9c7.6-8.4,18.4-13.1,29.7-13.1
	c18.8,0,27.8,10.6,27.8,27.2v60.1H445.6z M531.8,349.5v-9c-5.8,7-15.9,11.2-26.9,11.2c-13.6,0-29.4-9.1-29.4-28.2
	c0-20.1,15.9-27.4,29.4-27.4c11.4,0,21.4,3.8,26.9,10.4v-10.8c0-8.6-7.4-14.2-18.7-14.2c-9.2,0.1-18,3.6-24.6,10.1l-8.9-15.7
	c10.3-8.9,23.5-13.7,37.1-13.3c19.5,0,37.4,7.8,37.4,32.3v55h-22.3V349.5z M531.8,329.1v-10.6c-3.6-5-10.7-7.5-17.8-7.5
	c-8.9,0-16,4.7-16,12.9s7.2,12.6,16,12.6C521,336.5,528.1,334.1,531.8,329.1z M563.9,349.5V232h22.3v43.3
	c6.2-8.3,15.9-13.1,26.2-13.1c21.7,0,37.7,16.9,37.7,44.7c0,28.5-16.1,44.7-37.7,44.7c-10.3,0-20-4.9-26.2-13v10.9H563.9z
	 M605.8,331.6c12.9,0,21.5-10.1,21.5-24.9s-8.6-24.6-21.5-24.6c-7.6,0.1-14.8,3.8-19.4,9.8V322C591.1,328.1,598.1,331.6,605.8,331.6
	z M657.8,349.5V232h22.3v117.5H657.8z M688.6,306.9c0-24.6,18.3-44.7,44.1-44.7s42.6,19.1,42.6,46.7v5.3h-63.2
	c1.6,10.4,10.1,19.1,24.6,19.1c7.2,0,17.1-3,22.6-8.3l10.1,14.8c-8.5,7.8-21.8,11.8-35.1,11.8C708.2,351.7,688.6,334.2,688.6,306.9z
	 M732.6,280.7c-14,0-19.9,9.7-20.8,18.2h41.9C753.1,290.7,747.4,280.7,732.6,280.7z M782.1,253.7c1.1,0.6,2.1,1.6,2.7,2.7
	c0.6,1.1,1,2.4,1,3.8s-0.4,2.5-1,3.8c-0.6,1.1-1.6,2.1-2.7,2.7c-1.1,0.6-2.4,1-3.8,1c-2.7,0-5.1-1.3-6.3-3.6c-0.6-1.1-1-2.4-1-3.8
	s0.4-2.7,1-3.8c0.6-1.1,1.6-2.1,2.7-2.7c1.1-0.7,2.4-1,3.6-1C779.7,252.7,781,253.1,782.1,253.7z M781.4,265.4
	c0.8-0.5,1.6-1.3,2.1-2.2c1-1.9,1-4.2,0-6.2c-0.5-1-1.2-1.7-2.1-2.2c-0.8-0.5-1.9-0.8-3-0.7c-1.1,0-2.1,0.2-2.9,0.7
	c-0.8,0.5-1.6,1.3-2.1,2.2c-1,1.9-1,4.2,0,6.2c0.5,1,1.2,1.7,2.1,2.2c0.8,0.5,1.9,0.8,2.9,0.7C779.4,266.2,780.5,265.9,781.4,265.4z
	 M781,259.9c-0.4,0.4-0.8,0.7-1.3,0.8l2.2,3.3h-1.9l-1.8-3h-0.7v3h-1.7v-8.1h2.2c2.4,0,3.5,0.8,3.5,2.4
	C781.5,259.1,781.4,259.5,781,259.9z M777.4,259.7h0.8c1.1,0,1.6-0.4,1.6-1.2c0-0.4-0.1-0.7-0.4-0.8c-0.4-0.2-0.8-0.2-1.2-0.2h-0.8
	V259.7z"/>
<path d="M199.6,241.5c0.5,1.7,2.1,7.9,3.6,13.7l12.4,46.2c1.6,5.8,3.3,12,3.6,13.7c0.6,2.5-0.1,5.2-1.9,7l-10.1,10.1L173.5,366
	c-4.2,4.5-8.6,9-10.1,10.1c-1.9,1.7-4.6,2.4-7,1.9l-13.7-3.6L96.4,362l-13.7-3.6c-1.2-0.4-2.3-1-3.3-1.9c-1-0.8-1.6-2.1-1.9-3.3
	c-0.5-1.7-2.1-7.9-3.6-13.7l-12.4-46.2l-3.6-13.7l1.8-0.6l1.8-0.5c0.5,1.7,2.1,7.9,3.6,13.7l12.4,46.4c1.6,5.8,3.3,12,3.6,13.7
	c0.2,0.6,0.6,1.1,1,1.6c0.5,0.5,1,0.8,1.6,1l13.7,3.6l46.2,12.4l13.7,3.6c1.2,0.2,2.5-0.1,3.5-1l10.1-10.1l33.9-33.9l10.1-10.1
	c0.8-1,1.1-2.3,1-3.5c-0.5-1.7-2.1-7.9-3.6-13.7l-12.5-46c-1.6-5.8-3.3-12-3.6-13.7c-0.2-0.6-0.6-1.1-1-1.6c-0.5-0.5-1-0.8-1.6-1
	l-13.7-3.8l-46.1-12.4l-13.8-3.6c-1.2-0.2-2.5,0.1-3.5,1l-10.1,10.1L72.4,265l-10.1,10.1c-0.8,1-1.2,2.3-1,3.5l-1.8,0.4l-1.8,0.5
	c-0.6-2.5,0.1-5.2,1.9-7l10.1-10.1l33.9-33.7l10.1-10.1c1.9-1.8,4.6-2.4,7-1.9l13.7,3.6l46.2,12.4l13.7,3.6c1.2,0.4,2.3,1.1,3.3,1.9
	C198.6,239.2,199.2,240.2,199.6,241.5z"/>
<path d="M141.6,229.2l10.1,5.8l34.2,19.8l10.2,5.8c1.8,1.1,2.9,3,3,5.2v11.7v51.2c-0.1,2.2-1.2,4.1-3,5.2l-10.1,5.8l-34.3,19.8
	l-10.1,5.8c-1,0.5-1.9,0.7-3,0.7s-2.1-0.2-3-0.7l-10.1-5.8l-34.3-19.8L81,333.9l0.7-1.3l0.7-1.3l10.1,5.8l34.2,19.8l10.2,5.8
	c0.5,0.2,1,0.4,1.5,0.4c0.5,0,1.1-0.1,1.6-0.4l10.1-5.8l34.2-19.8l10.1-5.8c0.8-0.6,1.5-1.6,1.7-2.7v-11.7v-51.2
	c-0.1-1.1-0.7-2.1-1.6-2.5l-10.1-5.8l-34.2-19.8l-10.1-5.8c-0.5-0.2-1-0.4-1.6-0.4c-0.5,0-1.1,0.1-1.5,0.4l-10.2,5.8l-34.2,19.8
	l-10.1,5.8c-0.8,0.6-1.5,1.6-1.6,2.7v11.7v51.2c0.1,1.1,0.6,1.9,1.6,2.7l-0.7,1.3l-0.7,1.3c-1.8-1.1-2.9-3-3-5.2c0-1.5,0-6.7,0-11.7
	V266c0.1-2.2,1.2-4.1,3-5.2l10.1-5.8l34.3-19.8l10.1-5.8c1-0.5,1.9-0.7,3-0.7C139.6,228.5,140.7,228.7,141.6,229.2z"/>
<path d="M97.6,252.1l10.1-2.7l34-9.1l10.1-2.7c1.8-0.4,3.8,0.1,5.2,1.5l7.4,7.4l24.9,24.9l7.4,7.4c1.3,1.3,1.8,3.4,1.3,5.2
	c-0.4,1.2-1.6,5.8-2.7,10.1l-9.1,34c-1.2,4.2-2.4,9-2.7,10.1c-0.2,0.8-0.7,1.7-1.5,2.4c-0.6,0.7-1.5,1.2-2.4,1.5l-10.1,2.7l-34,9.1
	l-10.1,2.7l-0.4-1.2l-0.4-1.3l10.1-2.7l34-9.1l10.1-2.7c0.5-0.1,0.8-0.4,1.2-0.7s0.6-0.7,0.7-1.2l2.7-10.1l9.1-34
	c1.2-4.2,2.4-8.9,2.7-10.1c0.1-1-0.1-1.8-0.7-2.5l-7.3-7.4l-24.9-24.9l-7.4-7.4c-0.7-0.6-1.7-0.8-2.5-0.7l-10.1,2.7l-34,9.2
	l-10.1,2.7c-0.5,0.1-0.8,0.4-1.2,0.7c-0.4,0.4-0.6,0.7-0.7,1.2c-0.4,1.2-1.6,5.8-2.7,10.1l-9.1,33.9c-1.1,4.2-2.3,8.9-2.7,10.1
	c-0.1,1,0.1,1.8,0.7,2.5l7.4,7.4l24.9,24.9l7.4,7.4c0.7,0.6,1.7,0.8,2.5,0.7l0.4,1.3l0.4,1.3c-1.8,0.4-3.8-0.1-5.2-1.5l-7.4-7.4
	l-25-25.2l-7.4-7.4c-1.3-1.3-1.8-3.3-1.5-5.2c0.4-1.2,1.6-5.8,2.7-10.1l9.1-34l2.7-10.1c0.2-0.8,0.7-1.7,1.5-2.4
	C95.9,252.9,96.8,252.4,97.6,252.1z"/>
<path d="M88.6,347.3c-27.5-27.5-27.5-72.2,0-99.9c27.5-27.7,72.2-27.5,99.9,0c27.7,27.5,27.5,72.2,0,99.9
	C161,374.8,116.3,374.8,88.6,347.3z M186.2,345c26.2-26.3,26.1-68.9-0.2-95c-26.3-26.2-68.9-26.1-95,0.2
	c-26.1,26.2-26.1,68.7,0.1,94.9C117.3,371.4,159.9,371.3,186.2,345C186.2,345.1,186.2,345.1,186.2,345z"/>
<path d="M140.8,246.2l7.5,4.4l25.4,14.6l7.5,4.4c1.3,0.8,2.2,2.3,2.2,3.9v8.6v38c-0.1,1.6-0.8,3-2.2,3.9l-7.5,4.2l-25.4,14.7
	l-7.5,4.4c-0.7,0.4-1.5,0.6-2.2,0.6c-0.7,0-1.6-0.2-2.2-0.6l-7.5-4.4l-25.4-14.7l-7.5-4.4l0.6-1l0.6-1l7.4,4.4l25.4,14.7l7.5,4.4
	c0.4,0.2,0.7,0.2,1.1,0.2c0.4,0,0.7,0,1.1-0.2l7.5-4.4l25.4-14.7l7.5-4.4c0.6-0.5,1.1-1.1,1.1-1.9v-8.6v-38
	c-0.1-0.7-0.5-1.5-1.1-1.9l-7.5-4.4l-25.2-14.6l-7.5-4.4c-0.4-0.1-0.7-0.2-1.1-0.2c-0.4,0-0.7,0.1-1.1,0.2l-7.5,4.4l-25.4,14.6
	l-7.5,4.4c-0.6,0.5-1.1,1.2-1.1,1.9v8.6v38c0.1,0.7,0.5,1.5,1.1,1.9l-0.6,1l-0.6,1c-1.3-0.8-2.2-2.3-2.2-3.9v-8.7v-38
	c0-1.6,0.8-3,2.2-3.9l7.5-4.4l25.4-14.6l7.5-4.4c0.7-0.4,1.5-0.6,2.2-0.6C139.4,245.7,140.1,245.8,140.8,246.2z"/>
<path d="M101.6,333.6c-20.4-20.4-20.4-53.5,0-73.9s53.5-20.4,73.9,0c20.4,20.4,20.4,53.5,0,73.9C155.1,354.1,122,354.1,101.6,333.6z
	 M173.8,332c19.4-19.4,19.3-51-0.1-70.4c-19.4-19.4-51-19.3-70.4,0.1c-19.3,19.4-19.3,50.8,0,70.3
	C122.7,351.4,154.3,351.5,173.8,332z"/>
</svg>
