<?xml version="1.0" encoding="utf-8"?>
<!-- Generator: Adobe Illustrator 25.4.1, SVG Export Plug-In . SVG Version: 6.00 Build 0)  -->
<svg version="1.0" id="katman_1" xmlns="http://www.w3.org/2000/svg" xmlns:xlink="http://www.w3.org/1999/xlink" x="0px" y="0px"
	 viewBox="0 0 1280 1024" style="enable-background:new 0 0 1280 1024;" xml:space="preserve">
<style type="text/css">
	.st0{fill:#4A90E2;}
	.st1{fill:#D21A27;}
</style>
<symbol  id="isvg-varonis-logo" viewBox="-62.5 -10.5 125 21">
	<path d="M23.8,4.4c0.2,1.9-1.2,3.5-3,3.7c-0.2,0-0.4,0-0.6,0h-0.9c-1.9,0.2-3.5-1.2-3.7-3c0-0.2,0-0.4,0-0.6
		c-0.2-1.9,1.2-3.5,3.1-3.7c0.2,0,0.4,0,0.6,0h0.9c1.9-0.2,3.5,1.2,3.7,3.1C23.8,4,23.8,4.2,23.8,4.4z M20.2-1.6H19
		c-3.1-0.2-5.9,2.2-6.1,5.3c0,0.2,0,0.5,0,0.7c-0.2,3.1,2.2,5.8,5.3,6.1c0.3,0,0.5,0,0.8,0h1.2c3.1,0.2,5.9-2.1,6.1-5.3
		c0-0.3,0-0.5,0-0.8c0.2-3.1-2.2-5.8-5.4-6C20.7-1.6,20.4-1.6,20.2-1.6z M46.1-1.6c-0.6-0.1-1.2,0.4-1.3,1.1c0,0.1,0,0.1,0,0.2v9.6
		c0,0.6,0.5,1.2,1.1,1.2c0,0,0.1,0,0.1,0c0.7,0,1.2-0.5,1.3-1.1c0,0,0-0.1,0-0.1v-9.6c0-0.7-0.5-1.2-1.1-1.3
		C46.2-1.6,46.1-1.6,46.1-1.6 M-17.4,0.4c0.4-0.5,0.3-1.3-0.2-1.7c0,0-0.1-0.1-0.1-0.1c-0.5-0.4-1.2-0.3-1.7,0.2
		c0,0-0.1,0.1-0.1,0.1l-5.4,8l-5.4-8c-0.3-0.6-1-0.7-1.6-0.4c0,0-0.1,0.1-0.1,0.1c-0.6,0.3-0.8,1.1-0.4,1.6c0,0,0.1,0.1,0.1,0.1
		c0,0,6.4,9.5,6.5,9.6c0.4,0.5,1.2,0.6,1.7,0.2c0.1-0.1,0.2-0.1,0.2-0.2C-23.8,9.9-17.4,0.4-17.4,0.4 M58.9,3.2h-4.4
		c-0.6,0.1-1.2-0.4-1.2-1c0-0.1,0-0.2,0-0.2c-0.1-0.6,0.4-1.2,1-1.2c0.1,0,0.2,0,0.3,0h6.5c0.6,0,1.2-0.4,1.2-1.1c0,0,0-0.1,0-0.1
		c0-0.6-0.4-1.2-1.1-1.2c0,0-0.1,0-0.1,0h-6.7c-1.9-0.1-3.5,1.3-3.6,3.2c0,0.2,0,0.3,0,0.5c-0.1,1.9,1.3,3.5,3.1,3.6
		c0.2,0,0.3,0,0.5,0h4.4c0.6-0.1,1.2,0.4,1.2,1c0,0.1,0,0.2,0,0.2C60,7.5,59.6,8,59,8.1c-0.1,0-0.2,0-0.3,0h-6.9
		c-0.6,0-1.2,0.4-1.2,1.1c0,0,0,0.1,0,0.1c0,0.6,0.4,1.2,1,1.2c0.1,0,0.1,0,0.2,0h7c1.9,0.1,3.5-1.3,3.6-3.1c0-0.2,0-0.3,0-0.5
		c0.1-1.9-1.3-3.5-3.1-3.6C59.2,3.2,59,3.2,58.9,3.2 M0.9,0.8h5.5c0.8,0,1.4,0.6,1.4,1.4c0,0.1,0,0.1,0,0.2c0.1,0.8-0.5,1.5-1.2,1.6
		H0.9L0.9,0.8z M-1.7-0.4v9.6c0,0.7,0.6,1.3,1.3,1.3c0.7,0,1.3-0.6,1.3-1.3V6.3h4.9L8.2,10c0.2,0.3,0.5,0.5,0.9,0.5h0.1
		c0.6,0,1.1-0.6,1-1.2c0,0,0-0.1,0-0.1c0-0.2-0.1-0.4-0.2-0.5L8.2,6c1.3-0.6,2.1-2,2-3.4V2.4c0,0,0,0,0-0.1V2.1
		c0-2.3-1.4-3.7-3.5-3.7h-7.2C-1-1.7-1.6-1.2-1.6-0.5C-1.6-0.5-1.6-0.4-1.7-0.4L-1.7-0.4z M-14.2,5.8l2.6-3.9l2.6,3.9H-14.2z
		 M-4.1,8.5c0,0-6.4-9.5-6.5-9.6c-0.2-0.3-0.6-0.5-1-0.5c-0.4,0-0.8,0.2-1,0.5c-0.1,0.1-6.5,9.6-6.5,9.6c-0.4,0.5-0.3,1.3,0.2,1.7
		c0,0,0.1,0.1,0.1,0.1c0.5,0.4,1.2,0.3,1.6-0.2c0-0.1,0.1-0.1,0.1-0.2l1.3-2h8.2l1.3,2c0.3,0.6,1,0.7,1.6,0.4c0,0,0.1-0.1,0.1-0.1
		C-3.9,9.9-3.7,9.2-4,8.6C-4,8.6-4.1,8.5-4.1,8.5z M40.5,10.5c-0.6,0.1-1.2-0.4-1.2-1c0-0.1,0-0.1,0-0.2V4.3
		c0.1-1.8-1.2-3.4-3.1-3.6c-0.2,0-0.3,0-0.5,0h-0.9c-1.8-0.1-3.4,1.2-3.6,3c0,0.2,0,0.3,0,0.5v4.9c0.1,0.6-0.4,1.2-1,1.3
		c-0.1,0-0.2,0-0.3,0c-0.6,0.1-1.2-0.4-1.3-1.1c0-0.1,0-0.1,0-0.2V4.3c-0.2-3.1,2.1-5.7,5.2-5.9c0.3,0,0.6,0,0.8,0h1.2
		c3.1-0.2,5.8,2.1,6,5.1c0,0.3,0,0.5,0,0.8v4.9c0,0.6-0.4,1.2-1.1,1.3C40.7,10.5,40.6,10.5,40.5,10.5"/>
	<path class="st0" d="M-36.9,7.4l-6.1-9l-2.3,3.4l5.3,7.8c0.5,0.9,1.6,1.1,2.4,0.7c0.1-0.1,0.2-0.1,0.3-0.2c0.9-0.5,1.1-1.6,0.6-2.5
		C-36.8,7.5-36.8,7.5-36.9,7.4 M-48.9,9.6c0.5,0.8,1.5,1.1,2.4,0.7c0.1-0.1,0.2-0.1,0.3-0.2c0.9-0.5,1.1-1.6,0.6-2.4
		c0-0.1-0.1-0.1-0.1-0.2l-1.7-2.5l-2.3,3.4L-48.9,9.6"/>
	<path class="st1" d="M-49-10.5h-4.6l8.3,12.3l2.3-3.4L-49-10.5 M-62.5-10.5l12.8,18.9l2.3-3.4l-10.4-15.4H-62.5"/>
</symbol>
<use xlink:href="#isvg-varonis-logo"  width="125" height="21" x="-62.5" y="-10.5" transform="matrix(8.3821 0 0 8.3821 640 512)" style="overflow:visible;"/>
</svg>
